<svg xmlns="http://www.w3.org/2000/svg" viewBox="-295.40 -365.00 2067.80 2555.00">
  <path d="M436.00 1693.00 L436.00 1693.00 Q353.00 1671.00 286.00 1621.00 Q219.00 1571.00 167.00 1503.00 L167.00 1503.00 Q90.00 1401.00 49.00 1244.50 Q8.00 1088.00 5.00 985.00 L5.00 985.00 Q0.00 850.00 33.50 694.00 Q67.00 538.00 139.00 431.00 L139.00 431.00 Q199.00 339.00 295.50 267.50 Q392.00 196.00 506.00 187.00 L506.00 187.00 Q511.00 166.00 527.00 144.00 Q543.00 122.00 571.00 111.00 L571.00 111.00 Q581.00 105.00 599.50 101.50 Q618.00 98.00 642.00 104.00 L642.00 104.00 Q638.00 53.00 670.00 26.50 Q702.00 0.00 739.00 0.00 L739.00 0.00 Q775.00 0.00 807.00 26.50 Q839.00 53.00 836.00 104.00 L836.00 104.00 Q859.00 98.00 877.50 101.50 Q896.00 105.00 908.00 111.00 L908.00 111.00 Q935.00 122.00 951.00 144.00 Q967.00 166.00 971.00 187.00 L971.00 187.00 Q1085.00 196.00 1181.50 267.50 Q1278.00 339.00 1339.00 431.00 L1339.00 431.00 Q1410.00 538.00 1443.50 694.00 Q1477.00 850.00 1474.00 985.00 L1474.00 985.00 Q1470.00 1088.00 1428.50 1244.50 Q1387.00 1401.00 1311.00 1503.00 L1311.00 1503.00 Q1260.00 1571.00 1192.00 1621.00 Q1124.00 1671.00 1041.00 1693.00 L1041.00 1693.00 Q988.00 1751.00 904.00 1787.00 L904.00 1787.00 Q819.00 1825.00 739.00 1824.00 L739.00 1824.00 Q659.00 1825.00 574.00 1787.00 L574.00 1787.00 Q490.00 1752.00 436.00 1693.00 Z M674.00 98.00 L674.00 98.00 Q674.00 125.00 687.00 150.00 Q700.00 175.00 700.00 177.00 L700.00 177.00 Q638.00 116.00 584.00 140.00 L584.00 140.00 Q552.00 154.00 541.00 187.00 L541.00 187.00 Q591.00 190.00 639.50 209.00 Q688.00 228.00 715.00 272.00 L715.00 272.00 Q738.00 307.00 738.00 354.00 L738.00 354.00 Q737.00 406.00 704.50 449.00 Q672.00 492.00 611.00 492.00 L611.00 492.00 Q573.00 492.00 544.50 470.00 Q516.00 448.00 515.00 406.00 L515.00 406.00 Q513.00 359.00 554.00 331.00 L554.00 331.00 Q483.00 310.00 396.00 362.00 L396.00 362.00 Q430.00 366.00 457.00 386.00 L457.00 386.00 Q505.00 421.00 496.00 487.00 L496.00 487.00 Q424.00 494.00 351.00 521.50 Q278.00 549.00 217.00 593.00 L217.00 593.00 Q148.00 645.00 105.00 728.00 Q62.00 811.00 53.00 908.00 L53.00 908.00 Q45.00 1005.00 72.00 1094.00 Q99.00 1183.00 160.00 1247.00 L160.00 1247.00 Q227.00 1314.00 313.00 1354.00 L313.00 1354.00 Q400.00 1394.00 496.00 1404.00 L496.00 1404.00 Q500.00 1455.00 475.00 1490.00 L475.00 1490.00 Q446.00 1526.00 396.00 1527.00 L396.00 1527.00 Q483.00 1582.00 554.00 1561.00 L554.00 1561.00 Q531.00 1548.00 521.00 1521.00 L521.00 1521.00 Q508.00 1491.00 521.00 1460.00 L521.00 1460.00 Q545.00 1400.00 612.00 1400.00 L612.00 1400.00 Q683.00 1400.00 720.00 1463.00 L720.00 1463.00 Q740.00 1499.00 736.00 1543.50 Q732.00 1588.00 712.00 1621.00 L712.00 1621.00 Q683.00 1673.00 617.00 1693.00 L617.00 1693.00 Q560.00 1709.00 496.00 1703.00 L496.00 1703.00 Q545.00 1744.00 611.00 1767.00 L611.00 1767.00 Q679.00 1790.00 739.00 1790.00 L739.00 1790.00 Q798.00 1790.00 867.00 1767.00 L867.00 1767.00 Q934.00 1743.00 981.00 1703.00 L981.00 1703.00 Q917.00 1709.00 862.00 1693.00 L862.00 1693.00 Q795.00 1673.00 765.00 1621.00 L765.00 1621.00 Q745.00 1588.00 741.00 1543.50 Q737.00 1499.00 757.00 1463.00 L757.00 1463.00 Q794.00 1400.00 865.00 1400.00 L865.00 1400.00 Q932.00 1400.00 956.00 1460.00 L956.00 1460.00 Q969.00 1492.00 956.00 1521.00 L956.00 1521.00 Q947.00 1548.00 924.00 1561.00 L924.00 1561.00 Q994.00 1582.00 1083.00 1527.00 L1083.00 1527.00 Q1031.00 1526.00 1003.00 1490.00 L1003.00 1490.00 Q978.00 1455.00 982.00 1404.00 L982.00 1404.00 Q1078.00 1394.00 1164.00 1354.00 L1164.00 1354.00 Q1251.00 1315.00 1318.00 1247.00 L1318.00 1247.00 Q1378.00 1183.00 1405.50 1094.00 Q1433.00 1005.00 1424.00 908.00 L1424.00 908.00 Q1416.00 811.00 1373.00 728.00 Q1330.00 645.00 1261.00 593.00 L1261.00 593.00 Q1200.00 549.00 1126.50 521.50 Q1053.00 494.00 982.00 487.00 L982.00 487.00 Q973.00 421.00 1021.00 386.00 L1021.00 386.00 Q1047.00 366.00 1083.00 362.00 L1083.00 362.00 Q994.00 310.00 924.00 331.00 L924.00 331.00 Q964.00 360.00 963.00 406.00 L963.00 406.00 Q961.00 448.00 932.50 470.00 Q904.00 492.00 867.00 492.00 L867.00 492.00 Q806.00 492.00 773.00 449.00 Q740.00 406.00 740.00 354.00 L740.00 354.00 Q740.00 307.00 763.00 272.00 L763.00 272.00 Q790.00 228.00 838.00 209.00 Q886.00 190.00 936.00 187.00 L936.00 187.00 Q926.00 155.00 894.00 140.00 L894.00 140.00 Q840.00 116.00 778.00 177.00 L778.00 177.00 Q778.00 175.00 790.50 150.00 Q803.00 125.00 803.00 98.00 L803.00 98.00 Q803.00 66.00 782.50 49.00 Q762.00 32.00 739.00 32.00 L739.00 32.00 Q715.00 32.00 694.50 49.00 Q674.00 66.00 674.00 98.00 Z M796.00 1604.00 L796.00 1604.00 Q843.00 1676.00 956.00 1674.00 L956.00 1674.00 Q1039.00 1672.00 1109.50 1635.00 Q1180.00 1598.00 1235.00 1540.00 L1235.00 1540.00 Q1315.00 1459.00 1364.00 1343.00 Q1413.00 1227.00 1431.00 1116.00 L1431.00 1116.00 Q1407.00 1177.00 1363.00 1237.50 Q1319.00 1298.00 1265.00 1336.00 L1265.00 1336.00 Q1212.00 1372.00 1147.50 1398.00 Q1083.00 1424.00 1015.00 1433.00 L1015.00 1433.00 Q1019.00 1485.00 1073.00 1496.00 L1073.00 1496.00 Q1118.00 1504.00 1156.50 1481.50 Q1195.00 1459.00 1195.00 1459.00 L1195.00 1459.00 Q1181.00 1491.00 1157.00 1513.00 Q1133.00 1535.00 1116.00 1546.00 L1116.00 1546.00 Q1060.00 1582.00 999.50 1593.00 Q939.00 1604.00 894.00 1583.00 L894.00 1583.00 Q858.00 1568.00 858.00 1534.00 L858.00 1534.00 Q892.00 1549.00 917.00 1521.00 L917.00 1521.00 Q939.00 1499.00 925.00 1470.00 L925.00 1470.00 Q913.00 1447.00 895.50 1440.50 Q878.00 1434.00 865.00 1434.00 L865.00 1434.00 Q813.00 1434.00 786.00 1481.00 L786.00 1481.00 Q751.00 1540.00 796.00 1604.00 Z M956.00 219.00 L956.00 219.00 Q847.00 217.00 796.00 288.00 L796.00 288.00 Q773.00 320.00 772.50 353.00 Q772.00 386.00 786.00 410.00 L786.00 410.00 Q812.00 456.00 866.00 456.00 L866.00 456.00 Q900.00 456.00 921.50 427.00 Q943.00 398.00 918.00 369.00 L918.00 369.00 Q903.00 353.00 884.50 353.50 Q866.00 354.00 858.00 357.00 L858.00 357.00 Q858.00 326.00 894.00 308.00 L894.00 308.00 Q940.00 288.00 1000.00 298.50 Q1060.00 309.00 1116.00 346.00 L1116.00 346.00 Q1133.00 357.00 1157.00 379.50 Q1181.00 402.00 1195.00 433.00 L1195.00 433.00 Q1169.00 411.00 1127.50 400.50 Q1086.00 390.00 1054.00 404.00 L1054.00 404.00 Q1021.00 419.00 1015.00 460.00 L1015.00 460.00 Q1085.00 469.00 1152.00 497.00 Q1219.00 525.00 1274.00 564.00 L1274.00 564.00 Q1327.00 601.00 1368.00 661.50 Q1409.00 722.00 1431.00 781.00 L1431.00 781.00 Q1416.00 682.00 1373.50 572.00 Q1331.00 462.00 1263.00 381.00 L1263.00 381.00 Q1204.00 313.00 1126.00 267.00 Q1048.00 221.00 956.00 219.00 Z M682.00 1604.00 L682.00 1604.00 Q726.00 1539.00 691.00 1481.00 L691.00 1481.00 Q665.00 1434.00 612.00 1434.00 L612.00 1434.00 Q600.00 1434.00 582.00 1440.50 Q564.00 1447.00 552.00 1470.00 L552.00 1470.00 Q539.00 1499.00 561.00 1521.00 L561.00 1521.00 Q587.00 1549.00 620.00 1534.00 L620.00 1534.00 Q619.00 1568.00 584.00 1583.00 L584.00 1583.00 Q538.00 1604.00 477.50 1593.00 Q417.00 1582.00 361.00 1546.00 L361.00 1546.00 Q344.00 1535.00 320.50 1513.00 Q297.00 1491.00 283.00 1459.00 L283.00 1459.00 Q283.00 1459.00 321.00 1481.50 Q359.00 1504.00 404.00 1496.00 L404.00 1496.00 Q458.00 1485.00 464.00 1433.00 L464.00 1433.00 Q394.00 1424.00 330.00 1398.00 Q266.00 1372.00 212.00 1336.00 L212.00 1336.00 Q158.00 1298.00 114.50 1237.50 Q71.00 1177.00 47.00 1116.00 L47.00 1116.00 Q64.00 1227.00 113.50 1343.00 Q163.00 1459.00 243.00 1540.00 L243.00 1540.00 Q298.00 1598.00 368.50 1635.00 Q439.00 1672.00 521.00 1674.00 L521.00 1674.00 Q633.00 1676.00 682.00 1604.00 Z M521.00 219.00 L521.00 219.00 Q429.00 221.00 351.00 267.00 Q273.00 313.00 215.00 381.00 L215.00 381.00 Q147.00 462.00 104.00 572.00 Q61.00 682.00 46.00 781.00 L46.00 781.00 Q68.00 722.00 109.00 661.50 Q150.00 601.00 204.00 564.00 L204.00 564.00 Q258.00 525.00 325.00 497.00 Q392.00 469.00 464.00 460.00 L464.00 460.00 Q456.00 419.00 423.00 404.00 L423.00 404.00 Q392.00 390.00 350.00 400.50 Q308.00 411.00 283.00 433.00 L283.00 433.00 Q297.00 402.00 320.50 379.50 Q344.00 357.00 361.00 346.00 L361.00 346.00 Q417.00 309.00 477.50 298.50 Q538.00 288.00 584.00 308.00 L584.00 308.00 Q619.00 326.00 620.00 357.00 L620.00 357.00 Q610.00 351.00 591.00 353.00 Q572.00 355.00 560.00 369.00 L560.00 369.00 Q535.00 398.00 556.00 427.00 Q577.00 456.00 612.00 456.00 L612.00 456.00 Q666.00 456.00 691.00 410.00 L691.00 410.00 Q706.00 386.00 705.00 353.00 Q704.00 320.00 682.00 288.00 L682.00 288.00 Q630.00 217.00 521.00 219.00 Z" fill="currentColor" />
</svg>